<svg xmlns="http://www.w3.org/2000/svg" xmlns:xlink="http://www.w3.org/1999/xlink" viewBox="0 0 2930.89 1584.33"><defs><style>.cls-1{fill:#f9f9f9;}.cls-2{fill:#f0f0f0;}.cls-2,.cls-4,.cls-5,.cls-6,.cls-7,.cls-8{fill-rule:evenodd;}.cls-3{opacity:0.6;}.cls-4{fill:#87d068;}.cls-5{fill:url(#linear-gradient);}.cls-6{fill:#53a822;}.cls-7{fill:#c4e8b3;}.cls-8{fill:url(#linear-gradient-2);}</style><linearGradient id="linear-gradient" x1="1223.29" y1="950.67" x2="922.36" y2="1020.14" gradientUnits="userSpaceOnUse"><stop offset="0" stop-color="#87d068" stop-opacity="0.8"/><stop offset="1" stop-color="#87d068" stop-opacity="0.9"/></linearGradient><linearGradient id="linear-gradient-2" x1="1537.27" y1="1237.66" x2="1672.79" y2="884.62" xlink:href="#linear-gradient"/></defs><g id="Layer_2" data-name="Layer 2"><g id="Layer_1-2" data-name="Layer 1"><rect class="cls-1" y="13.46" width="308.51" height="1566.38"/><rect class="cls-1" x="497.05" y="17.95" width="308.51" height="1566.38"/><rect class="cls-1" x="1565.43" width="308.51" height="1566.38"/><rect class="cls-1" x="1079.8" y="4.49" width="308.51" height="1566.38"/><rect class="cls-1" x="2062.48" y="4.49" width="308.52" height="1566.38"/><rect class="cls-1" x="2622.38" y="4.49" width="308.52" height="1566.38"/><path class="cls-2" d="M1205.37,600.23h-19.08a23.68,23.68,0,0,0-23.68,23.68v38.36A23.68,23.68,0,0,1,1138.93,686H1022.69A23.68,23.68,0,0,1,999,662.27V623.91a23.68,23.68,0,0,0-23.68-23.68h-212a23.68,23.68,0,0,1-23.68-23.68V500.46A23.64,23.64,0,0,1,743.9,487L944.81,196.11a23.67,23.67,0,0,1,19.48-10.22h116.28a23.68,23.68,0,0,1,19.71,36.79l-139.66,210a23.68,23.68,0,1,0,43.4,13.11V416.74a23.68,23.68,0,0,1,23.68-23.68h111.23a23.68,23.68,0,0,1,23.68,23.68v29.08a23.68,23.68,0,0,0,23.68,23.68h19.08a23.68,23.68,0,0,1,23.68,23.68v83.37A23.68,23.68,0,0,1,1205.37,600.23Z"/><path class="cls-2" d="M1361.56,666.31q-51.09-31.08-80-90t-28.93-140.38q0-81.43,28.93-140.37t80-90q51.06-31.08,117.51-31.08t117.51,31.08q51.08,31.08,80,90t28.93,140.37q0,81.45-28.93,140.38t-80,90q-51.07,31.08-117.51,31.07t-117.51-31.07Zm174.66-230.39h0q0-126.43-57.15-126.44t-57.15,126.44q0,126.45,57.15,126.45T1536.22,435.92Z"/><path class="cls-2" d="M2208.33,600.23h-19.08a23.68,23.68,0,0,0-23.68,23.68v38.36A23.68,23.68,0,0,1,2141.89,686H2025.66A23.68,23.68,0,0,1,2002,662.27V623.91a23.68,23.68,0,0,0-23.68-23.68h-212a23.68,23.68,0,0,1-23.67-23.68V500.46a23.7,23.7,0,0,1,4.19-13.46l200.91-290.89a23.67,23.67,0,0,1,19.48-10.22h116.28a23.68,23.68,0,0,1,19.71,36.79l-139.66,210a23.68,23.68,0,1,0,43.4,13.11V416.74a23.68,23.68,0,0,1,23.68-23.68h111.23a23.68,23.68,0,0,1,23.68,23.68v29.08a23.68,23.68,0,0,0,23.68,23.68h19.08A23.68,23.68,0,0,1,2232,493.18v83.37A23.68,23.68,0,0,1,2208.33,600.23Z"/><g class="cls-3"><path class="cls-4" d="M1164.55,597.68h-19.07a23.68,23.68,0,0,0-23.68,23.68v38.36a23.68,23.68,0,0,1-23.68,23.68H981.88a23.68,23.68,0,0,1-23.68-23.68V621.36a23.68,23.68,0,0,0-23.68-23.68H722.57A23.68,23.68,0,0,1,698.89,574V497.91a23.68,23.68,0,0,1,4.19-13.46L904,193.56a23.67,23.67,0,0,1,19.48-10.22h116.27a23.68,23.68,0,0,1,19.72,36.79l-139.66,210a23.68,23.68,0,1,0,43.39,13.11V414.19a23.68,23.68,0,0,1,23.68-23.68h111.24a23.68,23.68,0,0,1,23.68,23.68v29.08A23.68,23.68,0,0,0,1145.48,467h19.07a23.68,23.68,0,0,1,23.68,23.68V574A23.68,23.68,0,0,1,1164.55,597.68Z"/><path class="cls-4" d="M1320.74,663.75q-51.08-31.07-80-90T1211.8,433.37q0-81.44,28.93-140.37t80-90q51.06-31.08,117.52-31.08T1555.77,203q51.07,31.06,80,90t28.93,140.37q0,81.45-28.93,140.38t-80,90q-51.09,31.08-117.51,31.08t-117.52-31.08ZM1495.4,433.37h0q0-126.44-57.14-126.44t-57.15,126.44q0,126.45,57.15,126.44T1495.4,433.37Z"/><path class="cls-4" d="M2167.52,597.68h-19.08a23.68,23.68,0,0,0-23.68,23.68v38.36a23.68,23.68,0,0,1-23.68,23.68H1984.84a23.68,23.68,0,0,1-23.68-23.68V621.36a23.68,23.68,0,0,0-23.67-23.68h-212A23.68,23.68,0,0,1,1701.85,574V497.91a23.71,23.71,0,0,1,4.2-13.46L1907,193.56a23.67,23.67,0,0,1,19.48-10.22h116.27a23.68,23.68,0,0,1,19.72,36.79l-139.66,210a23.68,23.68,0,1,0,43.4,13.11V414.19a23.68,23.68,0,0,1,23.68-23.68h111.23a23.68,23.68,0,0,1,23.68,23.68v29.08A23.68,23.68,0,0,0,2148.44,467h19.08a23.68,23.68,0,0,1,23.67,23.68V574A23.68,23.68,0,0,1,2167.52,597.68Z"/></g><path class="cls-4" d="M341.22,990.92c73.26,0,133.85-23.5,183.68-70.92C584.51,863.29,619,782.67,652.37,704.7c37.71-88.13,73.33-171.37,138.39-192.19,28.66-9.18,54.73-6.09,79.7,9.44,109.76,68.31,151.36,340.26,151.77,343l37.09-5.51c-1.76-11.89-44.72-291.94-169-369.32-34.39-21.4-71.72-25.88-110.94-13.32C698,502.84,659.07,593.72,617.9,689.94c-64,149.52-130.14,304.15-360.41,253.61l-111.4-36a18.74,18.74,0,1,0-11.53,35.67l114,36.8Q297.95,990.9,341.22,990.92Z"/><path class="cls-5" d="M974.94,1176.13,935,982.63a133.25,133.25,0,0,1,259.43-60.55l49,187.67Z"/><path class="cls-4" d="M975,1181.25c4.29,17.8,68.63,17.58,143.72-.51s132.47-47.18,128.19-65-68.64-17.57-143.72.51S970.74,1163.44,975,1181.25Z"/><path class="cls-6" d="M1137.15,1128.75c-1.07,6,9.67,13,24,15.54s26.82-.21,27.9-6.22-9.66-13-24-15.54S1138.23,1122.74,1137.15,1128.75Z"/><path class="cls-6" d="M1042.53,1157.77c-1.07,6,9.67,13,24,15.53s26.82-.21,27.9-6.22-9.66-13-24-15.54S1043.61,1151.76,1042.53,1157.77Z"/><path class="cls-7" d="M1095.19,851.41s57.9,21.05,76.32,81.58,34.21,138.16,34.21,138.16l-52.63,1.31Z"/><polygon class="cls-4" points="1044.2 782.83 1016.24 831.67 1053.09 823.12 1044.2 782.83"/><path class="cls-4" d="M2733.7,731.73l-14.91,33.15c-2.59-1.17-64.15-29.73-120.68-130.33-16.34-29.09-41.4-63.1-68-60-19.08,2.26-69.65,29.35-127.17,231.78-62.72,220.76-196.87,365-398.72,428.72-130.64,41.23-292.2-46.78-299-50.55l17.58-31.81c2,1.11,155,84.14,270.49,47.7,189.46-59.81,315.52-195.73,374.69-404,47.34-166.61,99-251,157.88-257.94,37.31-4.4,72.28,21.93,103.93,78.26,50.74,90.29,103.38,114.75,103.9,115Zm-1010.89,421h0l-8.78,15.91,8.79-15.9Z"/><path class="cls-6" d="M1385.51,1020.46l95.75,69.38a17.89,17.89,0,1,1-21,29l-95.75-69.38a17.89,17.89,0,0,1,21-29Z"/><path class="cls-6" d="M1459.37,914.18l95.75,69.38a17.89,17.89,0,1,1-21,29l-95.75-69.39a17.89,17.89,0,0,1,21-29Z"/><polygon class="cls-4" points="1794.38 1190.28 1734.95 1199.14 1751.4 1166 1807.58 1188.14 1794.38 1190.28"/><path class="cls-8" d="M1392.79,1119.74l165.65,107.68a133.25,133.25,0,0,0,150.94-219.52l-156.92-114Z"/><path class="cls-7" d="M1448.33,1127.63l38.14-51.6,195.63,140.91s-46.88,23.36-100.87-2.88S1448.33,1127.63,1448.33,1127.63Z"/><path class="cls-4" d="M866.12,1455.25c21.6,0,32.08-10.8,32.08-23.42,0-27.76-44-18.13-44-32.08,0-4.77,4-8.66,14.37-8.66a42.77,42.77,0,0,1,20.95,5.94l5.4-13.28c-7-4.43-16.74-6.7-26.24-6.7-21.5,0-31.87,10.69-31.87,23.57,0,28.08,44,18.36,44,32.51,0,4.62-4.21,8.08-14.58,8.08a44.57,44.57,0,0,1-25-7.87l-5.94,13.16C842,1451.68,854.13,1455.25,866.12,1455.25Z"/><path class="cls-4" d="M936.65,1454.82c18.47,0,31.86-12.42,31.86-29.92S955.12,1395,936.65,1395s-32,12.42-32,29.92,13.5,29.92,32,29.92Zm0-13.83c-8.42,0-14.9-6-14.9-16.09s6.48-16.09,14.9-16.09,14.8,6,14.8,16.09S945.08,1441,936.65,1441Z"/><path class="cls-4" d="M995.84,1403.51v-7.66h-16.1V1454h16.85v-27.43c0-11.13,6.16-16.2,15.45-16.2,1.29,0,2.37.11,3.78.21V1395C1006.85,1395,999.94,1397.9,995.84,1403.51Z"/><path class="cls-4" d="M1042,1403.51v-7.66h-16.1V1454h16.85v-27.43c0-11.13,6.16-16.2,15.45-16.2,1.29,0,2.37.11,3.78.21V1395C1053,1395,1046.06,1397.9,1042,1403.51Z"/><path class="cls-4" d="M1115.51,1395.85l-16.42,39.42-16.31-39.42h-17.39l25.17,58.53-.22.54c-2.27,5.19-4.86,7.24-9.5,7.24a15,15,0,0,1-9.51-3.67l-6.15,12c3.78,3.35,10.26,5.29,16.2,5.29,10.47,0,18.47-4.21,24.08-18.25l26.25-61.67Z"/><path class="cls-4" d="M1141.65,1433.86c-6,0-10.48,4.11-10.48,10.37,0,4.43,2.27,7.78,5.83,9.18l-4.75,17.18h10.69l6.16-15.56c2.48-5.94,2.91-8,2.91-10.8A9.93,9.93,0,0,0,1141.65,1433.86Z"/><path class="cls-4" d="M1227.94,1378.35h-32.72V1454h17.49v-20.84h15.23c20.2,0,32.84-10.48,32.84-27.33s-12.64-27.43-32.84-27.43Zm-1,40.5h-14.26V1392.6H1227c10.69,0,16.09,4.87,16.09,13.18S1237.66,1418.85,1227,1418.85Z"/><path class="cls-4" d="M1294.91,1395c-9.29,0-18.69,2.49-25.06,7l6.05,11.77c4.21-3.34,10.58-5.4,16.74-5.4,9.07,0,13.39,4.22,13.39,11.45h-13.39c-17.72,0-25,7.13-25,17.39,0,10,8.1,17.61,21.71,17.61,8.53,0,14.58-2.81,17.71-8.1V1454h15.77v-33.16c0-17.6-10.26-25.81-28-25.81Zm-1.3,48.5c-5.94,0-9.5-2.81-9.5-7,0-3.89,2.48-6.81,10.36-6.81H1306v5.94C1304.09,1440.88,1299.23,1443.48,1293.61,1443.48Z"/><path class="cls-4" d="M1382.71,1395.85v7.45c-4.42-5.62-11.12-8.32-19.22-8.32-16.09,0-29,11.13-29,28.08s13,28.08,29,28.08c7.56,0,13.93-2.37,18.36-7.23v2.48c0,10.48-5.18,15.88-17.06,15.88-7.46,0-15.56-2.59-20.53-6.59l-6.69,12.1c6.8,5.29,17.49,8,28.51,8,21,0,32.62-9.94,32.62-31.54v-48.38Zm-15.87,41.47c-8.86,0-15.34-5.72-15.34-14.26s6.48-14.25,15.34-14.25,15.23,5.72,15.23,14.25S1375.69,1437.32,1366.84,1437.32Z"/><path class="cls-4" d="M1471.28,1425.11c0-18.68-13.18-30.13-30.24-30.13-17.72,0-31,12.53-31,29.92s13.07,29.92,33.16,29.92c10.47,0,18.57-3.24,24-9.4l-9-9.72a19.7,19.7,0,0,1-14.58,5.62c-8.86,0-15-4.43-16.63-11.67h44c.11-1.4.33-3.24.33-4.54Zm-30.14-17.38c7.57,0,13.07,4.75,14.26,12.09h-28.62C1428,1412.37,1433.48,1407.73,1441.14,1407.73Z"/><polygon class="cls-4" points="1566.32 1378.35 1566.32 1424.25 1528.74 1378.35 1514.27 1378.35 1514.27 1453.95 1531.55 1453.95 1531.55 1408.05 1569.24 1453.95 1583.61 1453.95 1583.61 1378.35 1566.32 1378.35"/><path class="cls-4" d="M1628,1454.82c18.47,0,31.86-12.42,31.86-29.92S1646.47,1395,1628,1395s-32,12.42-32,29.92,13.5,29.92,32,29.92Zm0-13.83c-8.43,0-14.91-6-14.91-16.09s6.48-16.09,14.91-16.09,14.79,6,14.79,16.09S1636.42,1441,1628,1441Z"/><path class="cls-4" d="M1704,1439.26a11.3,11.3,0,0,1-6.8,2.16c-4.54,0-7.24-2.7-7.24-7.66V1410.1h14.47v-13H1690V1383h-16.85v14.15h-9v13h9V1434c0,13.83,8,20.85,21.71,20.85,5.19,0,10.26-1.19,13.72-3.68Z"/><polygon class="cls-4" points="1806.96 1392.39 1806.96 1378.35 1749.83 1378.35 1749.83 1453.95 1767.32 1453.95 1767.32 1426.41 1802.32 1426.41 1802.32 1412.37 1767.32 1412.37 1767.32 1392.39 1806.96 1392.39"/><path class="cls-4" d="M1843.79,1454.82c18.47,0,31.86-12.42,31.86-29.92s-13.39-29.92-31.86-29.92-32,12.42-32,29.92,13.5,29.92,32,29.92Zm0-13.83c-8.42,0-14.9-6-14.9-16.09s6.48-16.09,14.9-16.09,14.8,6,14.8,16.09S1852.22,1441,1843.79,1441Z"/><path class="cls-4" d="M1928.58,1395.85v28.73c0,10.69-5.62,15.66-13.4,15.66-7.45,0-11.77-4.32-11.77-14v-30.35h-16.85v32.83c0,17.93,10.26,26.14,24.84,26.14a23.51,23.51,0,0,0,18-7.78V1454h16v-58.1Z"/><path class="cls-4" d="M1996.4,1395c-7.88,0-14.68,2.7-19.22,7.67v-6.8h-16.09V1454h16.84v-28.73c0-10.69,5.84-15.66,13.94-15.66,7.45,0,11.77,4.32,11.77,13.72V1454h16.85v-33.26C2020.49,1403,2010.12,1395,1996.4,1395Z"/><path class="cls-4" d="M2078.7,1373.81V1402c-4.21-4.75-10.26-7-17.38-7-16.42,0-29.06,11.67-29.06,29.92s12.64,29.92,29.06,29.92c7.77,0,13.93-2.49,18.14-7.56V1454h16.09v-80.14ZM2064.23,1441c-8.42,0-14.9-6-14.9-16.09s6.48-16.09,14.9-16.09,14.8,6,14.8,16.09S2072.55,1441,2064.23,1441Z"/></g></g></svg>