<svg xmlns="http://www.w3.org/2000/svg" viewBox="0 0 2154.59 1487.72"><defs><style>.cls-1{isolation:isolate;}.cls-2{fill:#f5f5f5;}.cls-3{fill:#263238;}.cls-4{fill:#87d068;}.cls-5{fill:#eca541;}.cls-6{fill:#316319;}.cls-7{mix-blend-mode:multiply;opacity:0.07;}.cls-8{fill:#f4f4f4;}.cls-9{fill:#a7dd8e;}.cls-10{fill:#e0e0e0;}.cls-11{fill:#ffd3c9;}.cls-12{fill:#5e84fb;}.cls-13{fill:#ea7d84;}.cls-14{fill:#9fdd83;}.cls-15{fill:#dfe6fe;}</style></defs><g class="cls-1"><g id="Layer_2" data-name="Layer 2"><g id="Layer_1-2" data-name="Layer 1"><path class="cls-2" d="M2107.35,224.79a88.47,88.47,0,0,0,.68-11.64,105,105,0,0,0-126.56-102.89,139,139,0,0,0-259.71,32.81c-.66,0-1.31-.26-2-.26-47.74,0-87.09,37.16-92.62,82Z"/><path class="cls-3" d="M1820.5,1415.35c-1.85,35.28-32.22,64.14-67.5,64.14H927.73A60.41,60.41,0,0,1,867,1415.35L928,252.28c1.85-35.27,32.23-64.14,67.5-64.14h825.27a60.43,60.43,0,0,1,60.78,64.14Z"/><path class="cls-4" d="M1804.31,1415.35c-1.85,35.28-32.23,64.14-67.51,64.14H911.53a60.42,60.42,0,0,1-60.77-64.14l61-1163.07c1.85-35.27,32.23-64.14,67.51-64.14h825.26a60.43,60.43,0,0,1,60.78,64.14Z"/><path class="cls-5" d="M1070.65,1129.8c1.72,0,3.22-1.88.78-1.88-1.72,0-3.22,1.88-.78,1.88Z"/><path class="cls-6" d="M1357.37,289.24c-87.35-6.2-174.06-17-260.6-28.39-60.82-8-122.37-12.53-183.11-21-.34,1.35-.62,2.72-.88,4.1,37.07,5.12,74.45,8.74,111.82,12.17,67.74,6.21,134.87,17.4,202.42,25a2873.18,2873.18,0,0,0,408.83,16.79c76-2.31,152-7.42,227.86-14.78l.19-3.56C1694.83,296.07,1525.28,301.16,1357.37,289.24Z"/><path class="cls-6" d="M1483.87,250.4c67,5.16,134.39,7.71,202,6.25,60-1.29,119.69-6.62,179.28-14.11-.13-1.25-.31-2.49-.51-3.72-50.66,6.36-101.43,11.12-152.39,13.12-69.65,2.72-139.14.6-208.25-4.19S1366.49,233,1298.27,223.11c-68.9-10-137.79-20.77-205.72-35h-21.42c68.33,14.87,137.71,26.1,207.17,36.43C1346.43,234.69,1414.92,245.09,1483.87,250.4Z"/><path class="cls-6" d="M904.67,387.83l-.22,4.16c107.82-16.59,216.49-23.62,324.85-26.49,137.92-3.64,276-3.12,413.34,3.18,72.13,3.31,144.12,8.56,215.74,16.14l.22-4.24c-142.08-14.86-285.69-20.66-429.28-21.11C1254.87,358.92,1078.76,361,904.67,387.83Z"/><path class="cls-6" d="M1356.61,415.79c-154.77,5.58-311.76,28.91-458,88.34l-.22,4.09c230.85-95.05,486.38-98.6,727.08-85.75,77,4.11,153.87,11.46,229.75,23.23l.21-3.95q-53.54-8.22-107.59-13.7C1618.65,414.87,1487.26,411.09,1356.61,415.79Z"/><path class="cls-6" d="M1233,598.92q-169.37-6-339.21-3.72l-.21,4q39.07-.66,78.18-.75c141.9-.45,283.35,4.9,424.88,9.59,56.22,1.87,112.41,4.29,168.42,8.25,55.69,4,110.93,10.84,166,18.51q56.81,7.92,113.26,17.5l.23-4.3q-95.76-16.05-192.45-27.62C1513.63,604,1372.79,603.9,1233,598.92Z"/><path class="cls-6" d="M1233.58,470.78c-10.39,2.66-24.5,5.71-32.27,14.09-8.68,9.35,13.17,18.89,18.06,21.49,20.73,11,44.82,16.14,68.08,20.07,29.79,5,59.88,9.11,90.1,11.71,33.7,2.91,67.57,4.35,101.26,7.35,34.39,3.06,68.53,8.12,102.75,12.28Q1684.63,570.3,1788,581.34q29.88,3.2,59.79,6.25L1848,583Q1745.4,572.48,1643,560.47c-68.29-8-136.29-18-205.1-22.53-33.87-2.23-67.75-4.28-101.29-8.85-26.88-3.67-54.22-7.24-80.22-14.5a156.46,156.46,0,0,1-35-14.08c-3.46-1.95-15.39-7.45-13.65-13.21,2.87-9.47,28.51-13,36.11-14.81,42.2-9.95,84.13-13.27,127-14,141.62-2.49,281.6,20.44,418.63,47.4,20.65,4.06,41.26,8.33,61.84,12.68l.27-5.23c-100.64-21.63-202.3-40.57-305.09-50.57C1444,452.77,1336.28,444.51,1233.58,470.78Z"/><path class="cls-6" d="M1039.32,649.77c-49.25-3.7-98.72-3.54-148.24-2.93l-.22,4.17c41.22-1,82.46-1.48,123.09,1.89,69,5.73,138.21,9.07,207.51,11.61,142.25,5.2,284.43,10,426.48,17.52q97.17,5.15,194.27,11l.26-5c-186.42-11-373-20.74-559.95-26.42C1201.31,659.09,1120.16,655.84,1039.32,649.77Z"/><path class="cls-6" d="M1581.69,805.16c-70.36-4.31-140.49-10.61-210.49-17.59-68.67-6.85-137.45-12.73-205.92-20.89-93.45-11.15-186.43-25.46-278.14-44.69l-.32,6.1c102.38,21.21,206.26,36.38,310.66,48.07,68.8,7.7,137.89,13.72,206.86,20.33,70,6.7,140.17,12.37,210.57,16,73.4,3.82,147.1,5.23,220.86,3.12l.28-5.31C1751.06,812.67,1666.17,810.33,1581.69,805.16Z"/><path class="cls-6" d="M1569.7,895.07c-138.17-9.43-274.72-30.1-411.24-49.45-66.22-9.39-132.06-20.85-197-35.87-26.33-6.09-52.19-13.34-77.86-21.07l-.3,5.59c25.15,7.48,50.48,14.49,76.25,20.45,65.52,15.16,132.08,26.45,198.92,35.93,136.56,19.36,273.12,39.73,411.32,49.16,68.82,4.7,137.61,8.14,206.88,7.56q27.15-.23,54.3-1l.24-4.58q-24.21.66-48.43,1C1711.45,903.6,1640.58,899.91,1569.7,895.07Z"/><path class="cls-6" d="M1300.09,972.07c-103.85,13-208.11,32.8-309.48,62.13-41.69,12.07-81.81,27.39-122.13,43.3l-.26,5,22-8.8c62.38-25,127.1-43.14,192.08-58.11,134.08-30.9,270.3-48.06,406.42-55.3,113.41-6,226.7-5,339.4,1.54l.27-5.19C1653,946.63,1476.18,950,1300.09,972.07Z"/><path class="cls-6" d="M1097.75,941c26.54-8.48,55.3-12.13,79.6-27,2.06-1.26.38-2.57-1.09-2.87-11.06-2.27-21.93-.93-33.23-.14-13.28.93-26.83-1.19-39.78-3.19-24.94-3.85-49.94-7.71-74.77-12.11A1000.1,1000.1,0,0,1,880,857.39l-.27,5.21A1040.5,1040.5,0,0,0,1021,898.9c25,4.62,50.19,8,75.24,12.27a296.68,296.68,0,0,0,34.12,3.78c12.58.63,25.18-2,37.61-.63-24.36,13.5-54,17.22-80,25.73-30.24,9.88-60.55,19-91.15,27.55q-61.86,17.21-124.19,32.19l-.21,4Q938,987.88,1003.2,969.83C1035,961,1066.3,951.05,1097.75,941Z"/><path class="cls-6" d="M1513.73,1054.12a2143.57,2143.57,0,0,0-401.51,42.45q-52,10.53-103.46,24.47c-35.47,9.66-70,22.11-105,33.44-13.28,4.31-26.68,8.59-40,13.09l-.3,5.67c13.46-4.59,27-8.92,40.39-13.24,30.94-10,61.44-21.13,92.65-30.14,33.21-9.59,66.77-17.7,100.45-24.91,134.18-28.73,270.55-43.12,406.34-45.39,70.78-1.18,141.21,1.3,211.2,8.43,35.94,3.66,71.69,8.4,107.32,13.79l.3-5.82c-34.17-5.09-68.45-9.58-102.91-13.17C1651.11,1055.69,1582.57,1053.35,1513.73,1054.12Z"/><path class="cls-6" d="M1205.92,1180.51c-117.29,8.1-236.19,28.06-346.68,73.13l-.29,5.6c86.74-36,179-56.06,271.34-66.94,135.73-16,272.25-14.75,407.22-6.86,92.79,5.42,185.48,12.66,277.66,22.87l.28-5.24c-67.32-7.35-134.89-13.14-202.55-17.89C1477.62,1175.69,1342.34,1171.09,1205.92,1180.51Z"/><path class="cls-6" d="M1465.39,1297.83c-68-3.44-136.05-6.78-204.44-5.16-136.89,3.26-274.3,24.06-407.11,64l-.19,3.53a1515.37,1515.37,0,0,1,309.64-58.89c137.69-11.77,275.26-2.71,411.76,6.38,78.18,5.21,156.2,12.15,233.77,21.58l.2-3.68q-69.86-8.43-140.12-14.36C1601.22,1305.46,1533.34,1301.26,1465.39,1297.83Z"/><path class="cls-6" d="M1573.06,1444.36q-103.47-6.91-207.35-10c-102.6-2.93-205.17-3.55-308.14,2.23q-97.74,5.48-195.23,18.15,1.49,2,3.13,4c241.73-30.26,484.14-25.58,724.82-8.83q74.91,5.2,149.61,12.13c12.37,1.12,24.72,2.42,37.06,3.82q2.26-1.72,4.4-3.61l-.78-.09C1711.93,1453.39,1642.31,1449,1573.06,1444.36Z"/><g class="cls-7"><path d="M1781.69,284.51H1030.91l-59.66,1137.1s214-21.22,376.5-21.22S1722,1421.61,1722,1421.61Z"/></g><polygon class="cls-8" points="1769.46 269.54 1005.84 269.54 946.63 1398.1 1710.25 1398.1 1769.46 269.54"/><g class="cls-7"><path d="M1381,188.14l-11.19,14.38-176.69,41.7a38,38,0,0,0-21.78,15.44l-50.74,75.53c-9.36,13.94-4.35,27.68,10.1,27.68h510.61c14.45,0,30.43-13.74,32.19-27.68l9.53-75.53c1-7.57-2.65-13.46-9.46-15.44l-143.41-41.7.29-14.38Z"/></g><path class="cls-9" d="M1629.23,243.74,1471.37,202l-14.09-43.12a97.24,97.24,0,0,0,32-68.8A87,87,0,0,0,1407.65.18c-53.46-3.31-100.22,39.2-103,92.11a87.39,87.39,0,0,0,25,66.63L1311,202l-162.23,41.7a23.55,23.55,0,0,0-16.43,15.44l-24.57,75.53c-4.54,13.94,5.24,27.68,19.69,27.68h510.61c14.46,0,25.67-13.74,22.6-27.68L1644,259.18A20.39,20.39,0,0,0,1629.23,243.74ZM1400.16,31a20.08,20.08,0,0,1,20.26,21.38,22.8,22.8,0,0,1-22.5,21.38,20.09,20.09,0,0,1-20.26-21.38A22.8,22.8,0,0,1,1400.16,31Z"/><path d="M1238.54,559.26h-7.43l3.53-66.47h-24.46l.35-6.6h56.35l-.35,6.6h-24.46Z"/><path d="M1345,522.72a41.29,41.29,0,0,1-3.7,15.38,39,39,0,0,1-21.14,20.12,40.19,40.19,0,0,1-15.28,2.89,37.86,37.86,0,0,1-15-2.89,33.62,33.62,0,0,1-19-20.12,38.91,38.91,0,0,1-2.07-15.38,41.29,41.29,0,0,1,3.71-15.37,39.1,39.1,0,0,1,21.14-20.13,40.29,40.29,0,0,1,15.27-2.89,38.12,38.12,0,0,1,15,2.89,33.62,33.62,0,0,1,19,20.13A38.88,38.88,0,0,1,1345,522.72Zm-7.84,0a35.18,35.18,0,0,0-1.42-12.15,28.35,28.35,0,0,0-5.45-10.15,26.62,26.62,0,0,0-9.18-7,29.15,29.15,0,0,0-12.5-2.57,30.64,30.64,0,0,0-22.7,9.53,32.54,32.54,0,0,0-6.52,10.15,37,37,0,0,0-2.71,12.15,35,35,0,0,0,1.42,12.16,27.8,27.8,0,0,0,5.45,10.1,26.72,26.72,0,0,0,9.18,6.9,29.07,29.07,0,0,0,12.5,2.58A31,31,0,0,0,1328,545a32,32,0,0,0,6.52-10.1A37,37,0,0,0,1337.18,522.77Z"/><path d="M1388.24,486.19h24.26a42.34,42.34,0,0,1,13.55,2.27,35.29,35.29,0,0,1,12,6.86,32.24,32.24,0,0,1,8.32,11.46,34.4,34.4,0,0,1,2.56,15.94,36.59,36.59,0,0,1-4.26,16,37.73,37.73,0,0,1-9.53,11.4,40.2,40.2,0,0,1-12.75,6.87,44.49,44.49,0,0,1-13.79,2.27h-24.25Zm3.91,66.46h14.75a38,38,0,0,0,14.54-2.58,32.25,32.25,0,0,0,10.52-6.76,29.67,29.67,0,0,0,6.55-9.54,32.47,32.47,0,0,0,2.6-11,30.53,30.53,0,0,0-1.43-11,25.83,25.83,0,0,0-5.53-9.55,28.09,28.09,0,0,0-9.81-6.76,35.93,35.93,0,0,0-14.26-2.58h-14.76Z"/><path d="M1536.67,522.72A41.1,41.1,0,0,1,1533,538.1a39,39,0,0,1-21.14,20.12,40.1,40.1,0,0,1-15.27,2.89,38,38,0,0,1-15-2.89,33.57,33.57,0,0,1-19-20.12,38.91,38.91,0,0,1-2.07-15.38,41.28,41.28,0,0,1,3.7-15.37,39.1,39.1,0,0,1,21.14-20.13,40.38,40.38,0,0,1,15.28-2.89,38,38,0,0,1,15,2.89,33.67,33.67,0,0,1,19,20.13A39.06,39.06,0,0,1,1536.67,522.72Zm-7.85,0a34.94,34.94,0,0,0-1.41-12.15,28.51,28.51,0,0,0-5.45-10.15,26.62,26.62,0,0,0-9.18-7,29.21,29.21,0,0,0-12.5-2.57,30.64,30.64,0,0,0-22.7,9.53,32.54,32.54,0,0,0-6.52,10.15,36.73,36.73,0,0,0-2.71,12.15,34.74,34.74,0,0,0,1.42,12.16,27.65,27.65,0,0,0,5.45,10.1,26.72,26.72,0,0,0,9.18,6.9,29,29,0,0,0,12.5,2.58,30.92,30.92,0,0,0,22.69-9.48,32.05,32.05,0,0,0,6.53-10.1A37,37,0,0,0,1528.82,522.77Z"/><path class="cls-3" d="M1190,766.46h-75.12l4-75.11h75.12Zm-69.85-5h65.1l3.46-65.11h-65.1Z"/><rect class="cls-3" x="1253.15" y="691.35" width="357.29" height="5"/><rect class="cls-3" x="1251.29" y="726.4" width="357.29" height="5"/><rect class="cls-3" x="1249.43" y="761.46" width="217.29" height="5"/><path class="cls-3" d="M1179.33,966.7h-75.12l4-75.11h75.11Zm-69.85-5h65.11l3.45-65.11h-65.1Z"/><rect class="cls-3" x="1242.53" y="891.59" width="357.29" height="5"/><rect class="cls-3" x="1240.67" y="926.64" width="357.29" height="5"/><rect class="cls-3" x="1238.8" y="961.7" width="217.29" height="5"/><path class="cls-3" d="M1168.7,1166.94h-75.12l4-75.11h75.12Zm-69.85-5H1164l3.45-65.11h-65.1Z"/><rect class="cls-3" x="1231.9" y="1091.83" width="357.29" height="5"/><rect class="cls-3" x="1230.04" y="1126.89" width="357.29" height="5"/><rect class="cls-3" x="1228.18" y="1161.94" width="217.29" height="5"/><polygon class="cls-3" points="1148.85 748.01 1136.52 723.1 1141 720.88 1149.93 738.93 1213.54 662.9 1217.37 666.11 1148.85 748.01"/><path class="cls-2" d="M731,441A79.59,79.59,0,0,0,625.19,368.7,107.67,107.67,0,0,0,509.1,303.07c0-.43.06-.84.06-1.26a152.21,152.21,0,0,0-304.42,0A108.74,108.74,0,0,0,100.28,441Z"/><path class="cls-4" d="M1862.35,1454c31.12,10,61.2,13.28,111.66-5.2,14.77-5.41,39.23-19.62,46.55-33.53s5.53-29.91-7.5-38.7c-14.51-9.79-20.26-3.62-36.91,1.78s-27.65.64-32-8.68c-7.86-16.7,14.9-34.41,32.13-41s37.85-10.23,47.64-25.87c12.76-20.37-7.46-49.07-31-44.43-15.32,3-31.23,13-40.45.39-8.4-11.48,2.63-27.81,14.38-35.93s31.74-27.63,23.6-55.3c-5.09-17.3-26.32-22.87-43.92-11.58-17.17,11-28.18,35-35,53.74-6.21,17.13-21.93,26.28-35.11,15.26-7.09-5.93-8.17-18.6-13.47-26.17-9.44-13.46-33.28-4-37.49,11.87s4.3,32.18,13.39,45.87,19.5,28,19.59,44.41-16.72,33.53-31.65,26.66c-11.84-5.45-16.67-22.8-29.63-24.25-15.44-1.73-21.57,19.73-19.73,35.15C1783.53,1390,1831.22,1444,1862.35,1454Z"/><path class="cls-3" d="M1861.31,1480.29c25.3-140.91,94.19-295.36,94.88-296.9l-1.56-.7c-.69,1.55-69.67,156.19-95,297.3Z"/><rect class="cls-3" x="1904.74" y="1299.79" width="87.91" height="1.71" transform="translate(-250.74 493.44) rotate(-13.57)"/><rect class="cls-3" x="1884.95" y="1235.08" width="1.71" height="71.46" transform="translate(-345.08 1711.67) rotate(-45.15)"/><rect class="cls-3" x="1870.73" y="1421.5" width="92.7" height="1.71" transform="matrix(0.99, -0.15, 0.15, 0.99, -188.49, 297.7)"/><rect class="cls-3" x="1842.6" y="1349.82" width="1.71" height="81.05" transform="translate(-409.82 1894.48) rotate(-49.64)"/><path class="cls-10" d="M203.66,1457.76c-26.64,8.55-52.37,11.35-95.54-4.46-12.63-4.62-33.56-16.78-39.83-28.68s-4.73-25.59,6.42-33.11c12.41-8.38,17.33-3.1,31.58,1.52s23.66.54,27.41-7.42c6.72-14.29-12.75-29.45-27.49-35.11s-32.39-8.76-40.77-22.14c-10.91-17.42,6.38-42,26.56-38,13.1,2.57,26.71,11.11,34.6.33,7.19-9.82-2.25-23.79-12.31-30.74s-27.15-23.64-20.19-47.31c4.36-14.81,22.53-19.57,37.58-9.91,14.69,9.42,24.12,29.91,29.95,46,5.31,14.66,18.76,22.48,30,13.06,6.07-5.08,7-15.92,11.53-22.39,8.07-11.52,28.47-3.44,32.07,10.15s-3.68,27.53-11.46,39.24-16.68,23.94-16.76,38,14.31,28.69,27.08,22.81c10.13-4.66,14.27-19.5,25.35-20.74,13.21-1.48,18.46,16.88,16.88,30.07C271.09,1403,230.29,1449.2,203.66,1457.76Z"/><path class="cls-3" d="M204.55,1480.29c-21.65-120.56-80.59-252.7-81.18-254l1.33-.6C125.3,1227,184.31,1359.3,206,1480Z"/><rect class="cls-3" x="129.05" y="1288.98" width="1.46" height="75.22" transform="translate(-1190.24 1141.54) rotate(-76.43)"/><rect class="cls-3" x="153.02" y="1300.33" width="61.14" height="1.46" transform="translate(-864.11 508.1) rotate(-44.85)"/><rect class="cls-3" x="156.1" y="1391.07" width="1.46" height="79.31" transform="translate(-1281.39 1375.24) rotate(-81.54)"/><rect class="cls-3" x="185.15" y="1402.6" width="69.34" height="1.46" transform="translate(-856.56 476.47) rotate(-40.37)"/><rect class="cls-3" y="1479.29" width="2154.59" height="2"/><path class="cls-11" d="M693.15,983.06c132.3,72.42,120.11-138.33,120.23-140.15.51-7.58,7.46-10.86,11.47-9.46,2.6.92,4.08,4,4.16,7.86,2.48-3,5.56-4.45,8.17-3.53s4.08,4,4.16,7.86c2.48-3,5.56-4.45,8.17-3.53s4.08,4,4.16,7.86c2.48-3,5.56-4.45,8.17-3.54,4,1.41,3.11,14.56,3.11,14.56-26.51,214-128.76,193.85-193,160.11l-3-27.67Z"/><path class="cls-12" d="M656.32,959.39l-40,26.75s28.47,20.72,55.6,35l21.21-38C684.73,978.45,665.87,966.37,656.32,959.39Z"/><path class="cls-11" d="M293.52,1035.32S210.67,726.9,400.27,668.54c238.1-73.29,256.05,290.85,256.05,290.85Z"/><path class="cls-3" d="M601.57,513.59S709.72,744.86,337.28,773.86l6.82,80.21s-37-24.1-39.42,12.69c-2.78,42.36,34.88,17.74,34.88,17.74s-17.63,100-48.56,141.06c-5.85-5.16-184.8-341.84-20.6-350-.29-9.73,8.5-76.88,98.2-107.68C504.28,521.28,526.21,631.68,601.57,513.59Z"/><path class="cls-3" d="M423.35,842.09c3.83,13.72,1.19,26.45-5.91,28.43s-15.95-7.54-19.78-21.26-1.18-26.45,5.91-28.43S419.52,828.37,423.35,842.09Z"/><path class="cls-3" d="M573.18,798.74c3.83,13.72,1.19,26.45-5.91,28.43s-15.95-7.54-19.78-21.26-1.18-26.45,5.91-28.43S569.35,785,573.18,798.74Z"/><path class="cls-13" d="M558.42,872.44c-15.82,2.63-68.53,12.3-103.14,29.36a5.74,5.74,0,0,0-3.07,6.46c3.13,13.3,16.92,50.89,71.37,36.93,53.74-13.79,45.63-55,41.19-68.86A5.67,5.67,0,0,0,558.42,872.44Z"/><path class="cls-3" d="M622.1,1456.18l39.39-94.88c5.3-38.49,9.86-80.18,13.22-115.09-131.42,9.09-247.47,16.49-342,11.71,3.49,34.26,5.56,66.1,5.59,99.76l-20.45,121.73s115.42,25.28,96.57-12.32c-26.39-52.65-75.64-9-75.64-9l37.31-93.49,12.49-70.29c156.78,6.18,235.06-7.29,235.06-7.29l.07,73.12-24.19,119.43s134.09,24.2,90.72-27.85C657,1411.86,622.1,1456.18,622.1,1456.18Z"/><path class="cls-4" d="M674.71,1246.21c5.4-106.2,6.15-164.34-18.39-286.82L291,1025.56c16.27,71.24,26.84,127.41,41.7,232.36C427.24,1262.7,533.5,1266.69,674.71,1246.21Z"/><path class="cls-4" d="M321.39,1056,291,1025.56a246.1,246.1,0,0,0-18.43,45.31l21.84,6.7,16.46,5A221,221,0,0,1,321.39,1056Z"/><path class="cls-4" d="M964.31,700.79s3.72,20.5,11.77,30.11,27.55,16.92,27.55,16.92L330.7,1310.58l-39.33-47Z"/><path class="cls-14" d="M1003.63,747.82s0,10,5.24,16.29c4.64,5.53,12.73,7.54,14.68,7.95a20.87,20.87,0,0,1-2.45,2.5l-670,560.36-20.35-24.34Z"/><path class="cls-3" d="M1066.52,651.19c1.74-.34,3.06,0,3.78.91s.87,2.24.24,3.89l-13.87,35.64L1029,658.53Z"/><path class="cls-14" d="M251.29,1255.72l80,95.7-14.65,12.25c-26.43,22.1-57.87,12-80-14.44s-26.48-59.16-.06-81.26C236.79,1267.85,247.19,1259.16,251.29,1255.72Z"/><path class="cls-15" d="M271,1239.22l80,95.7-19.73,16.5-80-95.7Z"/><path class="cls-15" d="M952.33,673.54l76.66-15,27.68,33.1-28.33,72.8a29.41,29.41,0,0,1-4.79,7.63c-1.95-.41-10-2.42-14.68-7.95-5.29-6.33-5.24-16.29-5.24-16.29s-19.51-7.3-27.55-16.92-11.77-30.11-11.77-30.11-9.82-1.71-15.11-8c-4.63-5.54-5.17-13.86-5.24-15.85A29.22,29.22,0,0,1,952.33,673.54Z"/><path class="cls-14" d="M964.31,700.79,291.37,1263.56,271,1239.22,941.08,678.87a20.89,20.89,0,0,1,2.88-2c.07,2,.61,10.31,5.24,15.85C954.49,699.08,964.31,700.79,964.31,700.79Z"/><path class="cls-11" d="M813.38,842.91c.51-7.58,7.46-10.86,11.47-9.46,2.6.92,4.08,4,4.16,7.86,2.48-3,5.56-4.45,8.17-3.53s4.08,4,4.16,7.86c2.48-3,5.56-4.45,8.17-3.53s4.08,4,4.16,7.86c2.48-3,5.56-4.45,8.17-3.54,4,1.41,3.11,14.56,3.11,14.56-2.35,18.94-5.29,36-8.75,51.47l-63.74,53.31C817.68,920.57,813.31,844,813.38,842.91Z"/><path class="cls-11" d="M310.87,1082.62c-40.62,128.61,138.35,91.43,139.91,91,6.52-1.89,11.41,2.94,11.46,6.74,0,2.47-2.11,4.66-5.33,5.91,3.25,1.17,5.43,3.31,5.46,5.78s-2.1,4.65-5.32,5.9c3.25,1.18,5.43,3.31,5.46,5.78s-2.1,4.66-5.33,5.91c3.25,1.17,5.44,3.3,5.47,5.77.05,3.8-11.28,7.07-11.28,7.07-178.8,31.84-207.21-72.51-178.8-151.59Z"/></g></g></g></svg>